<?xml version="1.0" encoding="UTF-8"?>
<svg width="1e3" height="1e3" version="1.1" viewBox="0 0 264.58 264.58" xmlns="http://www.w3.org/2000/svg" xmlns:xlink="http://www.w3.org/1999/xlink">
 <g stroke-width=".28542">
  <path d="m42.238 194.41c-3.8547-1.2338-12.366-8.1399-13.563-11.005-0.22988-0.55018-0.41796-1.5724-0.41796-2.2717 0-2.4259 2.7602-4.921 6.8501-6.192 2.7804-0.86411 9.7461-2.1908 14.754-2.8101 2.443-0.30209 4.5421-0.65493 4.6646-0.78408 0.22381-0.23583 6.1923-19.689 7.5156-24.495 1.3767-5.0006 1.2962-6.2867-0.46747-7.4668-3.7756-2.5264-13.568-2.6015-27.82-0.21322-1.4506 0.24309-2.8957 0.36004-3.2113 0.25988-1.3079-0.41511-1.4305-2.3243-0.2009-3.13 1.2696-0.8319 11.978-2.5217 19.236-3.0353 4.1234-0.29182 5.2153-0.27629 7.7923 0.11088 1.6483 0.24764 3.7393 0.73492 4.6466 1.0828 1.9708 0.75572 3.9919 2.4566 4.8458 4.078 0.8707 1.6534 0.81371 5.0106-0.156 9.1896-0.65874 2.8388-4.7726 18.43-5.7854 21.926l-0.40429 1.3956 4.7772-0.14653c4.4634-0.13691 11.55 0.0711 17.633 0.51767l2.617 0.1921 0.14394-5.9952c0.1226-5.1067 0.2239-6.1589 0.68351-7.1002 0.70151-1.4367 1.8046-1.9971 2.8943-1.4703 0.69078 0.33392 0.77372 0.51548 0.69162 1.514-0.22608 2.7499-0.35635 10.971-0.19492 12.301l0.17742 1.4618 1.1971 0.16409c0.65839 0.0902 2.6403 0.50788 4.4043 0.92805 2.3939 0.57022 3.3891 0.94585 3.9245 1.4812 1.3281 1.3281 0.70054 4.0282-1.1123 4.7857-0.83433 0.34861-1.2409 0.31615-3.7628-0.30041-1.5551-0.38018-3.175-0.69461-3.5998-0.69873l-0.77234-8e-3 0.17448 3.9245c0.12003 2.6997 0.30424 4.1245 0.59028 4.5654 0.55068 0.84883 0.24066 2.4869-0.57936 3.0613-0.97952 0.68609-2.8891 0.56008-3.8337-0.25297l-0.80082-0.6893v-11.322l-7.2782-0.62023c-4.318-0.36798-9.7417-0.62934-13.335-0.64262l-6.0572-0.0224-0.45701 1.6412c-1.6256 5.8378-3.1193 9.3308-5.1387 12.017-3.0975 4.1206-6.8633 5.4826-11.264 4.0738zm4.7269-5.4673c1.0748-0.66428 2.313-2.4792 3.5053-5.1378 0.89682-1.9999 2.4546-6.54 2.2908-6.6764-0.15989-0.13321-6.8503 0.60485-10.189 1.1241-5.5233 0.85883-8.2021 1.6744-9.116 2.7756-0.97226 1.1715 9.1561 8.4926 11.75 8.4933 0.45241 1.3e-4 1.2441-0.2603 1.7593-0.57871zm87.738 2.7014c-4.7333-3.3516-10.657-6.5601-13.887-7.5211-1.1317-0.33678-2.4548-0.94648-2.9401-1.3549-0.76108-0.64041-0.87067-0.90306-0.79657-1.9091 0.10979-1.4904 0.13594-1.5078 10.361-6.9084 8.9665-4.7358 14.793-7.5966 18.46-9.0639 1.3619-0.54496 2.7668-1.2616 3.1221-1.5926 0.79403-0.73976 1.6965-0.76835 2.5457-0.0807 0.53678 0.43466 0.61154 0.69171 0.45063 1.5494-0.27752 1.4793-0.85861 1.9798-3.7424 3.2232-3.8653 1.6666-8.2937 3.9788-16.172 8.4437l-7.1182 4.0341 3.368 1.6483c3.609 1.7662 8.7742 5.0587 10.289 6.5589 1.177 1.1653 1.2641 2.538 0.22703 3.5751-1.0454 1.0454-2.0444 0.90104-4.1672-0.60202zm58.955 0.69258c-8.825-1.1148-15.684-5.8593-17.815-12.322-1.3581-4.1194-2.0118-12.477-1.4778-18.892 0.6506-7.8149 1.7619-13.826 3.911-21.155 0.73094-2.4928 1.3926-4.8535 1.4704-5.246 0.49793-2.5118 3.7791-2.6339 3.7791-0.14064 0 0.44736-0.56977 2.9418-1.2662 5.5432-2.1512 8.0359-2.9335 13.311-3.199 21.57-0.24222 7.5342 0.63529 14.627 2.229 18.018 1.4986 3.1883 5.9419 6.1564 10.656 7.1185 4.0813 0.83291 11.573 0.49092 19.649-0.89689 1.6111-0.27687 2.7345-0.63017 3.1068-0.977 1.3118-1.2222 2.991-0.97186 3.7854 0.56425 0.54241 1.0489 0.53883 1.2622-0.0417 2.4855-0.80641 1.6994-2.0367 2.2538-7.0947 3.1972-7.2094 1.3446-13.057 1.7194-17.692 1.1339zm27.678-29.483c-0.93664-0.93664-3.5602-6.408-4.4571-9.2949-0.90102-2.9004-0.92038-6.9477-0.0426-8.8953 1.0278-2.2803 2.9091-2.8892 3.7975-1.2291 0.33499 0.62594 0.33527 0.87435 2e-3 1.6489-0.61151 1.4205-0.68887 4.7425-0.15863 6.8122 0.25409 0.99181 1.3564 3.5126 2.4495 5.6018 2.3901 4.5679 2.3976 5.469 0.0495 5.9386-0.71077 0.14216-1.0284 0.0294-1.64-0.58223zm19.338-3.4855c-1.2039-0.50638-2.065-5.071-2.0589-10.913 2e-3 -2.2949 0.10135-4.325 0.21988-4.5115 0.33985-0.53449 1.5733-0.89415 2.2278-0.6496 0.92266 0.34475 1.2092 1.5318 1.341 5.5552 0.0843 2.5728 0.32364 4.5232 0.78069 6.3614l0.65916 2.6509-0.57537 0.77411c-0.55849 0.7514-1.7496 1.0877-2.5942 0.73243zm-6.5658-40.346c-1.5205-0.92706-1.9882-3.0683-0.9205-4.2143 0.78526-0.84287 0.74612-2.3107-0.27242-10.217-0.4638-3.6002-0.97755-8.5147-1.1417-10.921-0.3863-5.664-0.38432-22.732 3e-3 -28.354 0.49102-7.1209 1.6987-15.435 2.9885-20.574l0.18856-0.75129-19.364 0.05508c-16.891 0.04804-19.94-0.0095-23.874-0.45054-2.4804-0.27809-5.1777-0.64541-5.9938-0.81626-3.6696-0.7682-5.2941-2.1112-4.3313-3.5806 0.65961-1.0067 1.1354-1.0919 3.2423-0.58036 2.8492 0.69175 3.467 0.75909 9.6965 1.0569 4.7591 0.22754 8.7833 0.1533 23.103-0.42618 17.131-0.69324 19.781-0.6919 21.179 0.01073 1.9668 0.98858 2.2529 2.2972 1.3154 6.017-1.933 7.6694-2.3203 12.258-2.2857 27.081 0.0298 12.787 0.3694 18.906 1.9801 35.677 0.62874 6.5465 0.19009 9.0714-1.8783 10.812-1.0774 0.90657-2.3358 0.96734-3.6346 0.17551zm-55.404-0.39711c-1.7728-0.98259-1.7798-1.3182-0.46385-22.366 0.54706-8.7503 1.3187-21.973 1.7148-29.383 0.3961-7.4105 0.84184-13.794 0.99053-14.185 0.35088-0.92288 1.5369-1.6947 2.2543-1.467 0.64555 0.20489 1.5646 1.4782 1.3351 1.8497-0.0854 0.13818-0.28529 6.7812-0.44421 14.762-0.40823 20.501-1.1137 45.223-1.3116 45.96-0.092 0.34284-0.0198 1.0704 0.16052 1.6167 0.39001 1.1817-0.14052 2.7975-1.0844 3.3027-0.77784 0.41629-2.3171 0.37237-3.1511-0.0899zm-141.38-2.67c-0.66863-0.76753-0.75133-1.2871-0.33595-2.1106 0.48639-0.96427 3.0123-2.0319 9.2743-3.92 5.4373-1.6394 21.482-5.5686 25.23-6.1788 3.27-0.53226 7.0045-0.54241 8.249-0.0224 1.9367 0.80919 2.515 2.9922 1.1535 4.3537-0.62957 0.62956-0.87476 0.69999-1.7839 0.51234-2.6524-0.54748-6.9364-0.18688-13.765 1.1586-12.153 2.3947-23.144 5.1154-25.421 6.2929-1.0728 0.55478-2.0729 0.52182-2.6021-0.0858zm94.392-5.1933c-0.31396-0.1285-0.80677-0.49601-1.0951-0.81669-0.47669-0.53012-0.53249-1.2912-0.61466-8.3822-0.0592-5.1069-0.44217-12.873-1.1095-22.498-1.0276-14.821-1.3223-24.088-0.80781-25.402 0.61336-1.5671 2.0064-2.202 3.0427-1.3868 0.70932 0.55795 0.73001 0.65972 0.56255 2.7669-0.21869 2.7516 0.17527 8.5737 1.3504 19.958l0.92104 8.9221 0.91459-0.17158c0.60702-0.11388 1.1509-0.01675 1.6172 0.2888 2.294 1.5031 10.231 2.4703 15.602 1.9013 2.5459-0.26973 3.068-0.2527 3.6346 0.11853 1.4103 0.92408 1.2199 3.0801-0.32928 3.7274-1.358 0.56741-9.1085 0.54977-12.676-0.02885-2.9044-0.47103-6.4529-1.5562-7.6467-2.3384l-0.74429-0.48767 0.21325 2.2743c0.11729 1.2509 0.32562 3.4945 0.46296 4.9858 0.31145 3.3818 0.31437 12.224 5e-3 14.111-0.34691 2.1139-1.6941 3.117-3.3023 2.4588zm87.481-0.89075c-1.3343-0.12226-5.637-0.36886-9.5615-0.548-9.7214-0.44374-12.105-0.69012-13.484-1.3938-1.6069-0.8198-1.9962-2.0687-0.94208-3.0227 0.42759-0.38696 0.81139-0.4598 1.6412-0.31149 0.59568 0.10647 5.1931 0.31607 10.216 0.46579 21.222 0.63246 19.555 0.52288 20.309 1.3356 0.82731 0.89269 0.85682 2.0367 0.0781 3.0268-0.56736 0.72128-0.69868 0.75036-3.211 0.71102-1.4407-0.0225-3.7111-0.14104-5.0455-0.2633zm-1.5698-15.416c-4.2202-0.75831-9.133-1.0727-20.186-1.2917-6.3867-0.12657-10.14-0.31069-10.556-0.51777-0.35452-0.17675-0.76898-0.67508-0.92102-1.1074-0.23598-0.67099-0.16653-0.89598 0.47437-1.5369l0.75081-0.75082 13.506-0.02686c13.744-0.02734 17.259 0.16554 20.709 1.1362 1.7115 0.48146 2.5514 1.5935 2.2168 2.9349-0.47193 1.8914-1.1721 2.0269-5.9948 1.1604zm-161.68-12.529c-0.30997-0.30997-0.64194-0.87581-0.73772-1.2574-0.095778-0.38161-0.45225-0.79059-0.79216-0.90883-0.33991-0.11825-5.9482-0.24883-12.463-0.29017-6.5147-0.04135-11.932-0.08517-12.039-0.09739-0.49235-0.05647-1.0907-0.99505-1.0907-1.7109 0-1.4469 0.56594-1.635 6.1365-2.04 6.8579-0.49864 19.488-0.5071 21.468-0.01439 1.7199 0.42789 3.5059 2.1141 3.5059 3.31 0 1.0415-0.84723 2.9769-1.4427 3.2956-0.83222 0.44539-1.9386 0.3209-2.546-0.28648zm32.709-6.2471c-0.91113-1.0068-1.1125-2.4722-1.2411-9.03-0.16342-8.3366 0.18463-13.135 1.0548-14.543 0.82635-1.3371 1.8078-1.583 2.7573-0.6909 0.58935 0.55366 0.68233 0.83155 0.51308 1.5334-0.37254 1.5447-0.45228 13.572-0.10977 16.555 0.65859 5.7356 0.65855 5.3689 5.71e-4 6.0652-0.76004 0.80435-2.2956 0.86148-2.975 0.11068zm98.291-2.2601c-1.6074-0.2583-2.3-1.6974-1.3321-2.7677 0.58412-0.64591 1.1343-0.74261 9.8946-1.7392 13.294-1.5123 21.196-1.5004 22.731 0.03435 0.92474 0.92474 0.90627 2.3793-0.0415 3.2697-0.70844 0.66555-0.74227 0.66865-3.6391 0.33355-4.2204-0.48821-9.8624-0.41506-18.028 0.23375-3.9371 0.31282-7.5436 0.60958-8.0146 0.65948-0.47094 0.04989-1.1774 0.03912-1.5698-0.02395zm-85.455-3.5761c-0.55733-0.55733-0.73568-1.2523-1.1537-4.4953-0.63692-4.9414-0.55186-6.1618 0.48315-6.9315l0.7849-0.58374 0.7849 0.58256c0.87066 0.64621 0.90647 0.77372 1.8005 6.4112 0.50999 3.2158 0.55429 4.0028 0.25705 4.5667-0.69142 1.3117-1.9098 1.4972-2.9568 0.4502zm-39.894-8.1453c-0.81889-0.719-2.1833-1.2094-7.9616-2.8615-9.8596-2.819-17.122-5.4671-18.558-6.7664-0.66096-0.59816-0.69935-1.4857-0.1012-2.3396 0.60995-0.87082 1.2345-0.80186 4.6932 0.51826 4.17 1.5916 8.4115 2.8207 16.618 4.8157 3.8811 0.94349 7.4279 1.9075 7.8819 2.1423 1.0029 0.5186 1.8425 2.1589 1.5999 3.1254-0.23674 0.94326-1.2512 1.847-2.3113 2.059-0.70742 0.14148-1.0599 0.01022-1.861-0.69316z"/>
  <path d="m130.9 237.26c-1.4356-1.0214-4.3115-4.6099-4.7434-5.9186-0.2839-0.8602-0.26462-1.1416 0.11826-1.7259 0.62502-0.95389 1.2834-1.066 5.5831-0.95017 3.1224 0.0841 3.7421 0.0312 3.8455-0.3279 0.2053-0.71309 0.72592-3.7835 0.72592-4.2812 0-0.37477-0.62821-0.56027-3.211-0.94815-1.766-0.26522-3.4678-0.44939-3.7817-0.40926-0.40028 0.0512-0.59758-0.11579-0.66072-0.55915-0.13251-0.93047 0.75552-1.0375 4.5242-0.54544 1.7943 0.23428 3.3224 0.36589 3.3958 0.29245 0.19565-0.19566 0.53764-3.1612 0.56548-4.9036 0.0176-1.1033 0.14659-1.5544 0.48102-1.6828 0.82515-0.31664 1.0102 0.52417 0.83539 3.7961l-0.16959 3.1747 1.3055 0.32873c1.4076 0.35444 1.8856 0.97525 1.2445 1.6164-0.3174 0.3174-0.62923 0.33825-1.4929 0.0998-0.60043-0.16578-1.1409-0.25217-1.2011-0.19197-0.12027 0.12027-0.67858 3.7966-0.68762 4.5278-4e-3 0.32185 0.53725 0.60408 1.829 0.95373 2.0583 0.55717 2.7908 1.1571 2.5477 2.0866-0.2167 0.82866-0.95642 1.0242-1.9773 0.52271-0.4594-0.22569-1.2986-0.49488-1.8648-0.59821l-1.0296-0.18788-0.48987 1.9507c-1.0836 4.3149-3.1251 5.7068-5.6918 3.8806zm2.6682-1.6361c0.1916-0.23086 0.64563-1.3547 1.009-2.4974l0.66061-2.0777-1.0454-0.18762c-2.4051-0.43168-5.685-0.58441-5.877-0.27368-0.4014 0.64948 3.4792 5.4561 4.4049 5.4561 0.27474 0 0.6563-0.18888 0.8479-0.41975zm-45.51 1.5856c-0.20583-0.6485 0.55695-7.1339 1.1305-9.6117 1.6741-7.2327 6.0904-12.828 12.487-15.822 3.582-1.6762 6.2343-1.7388 8.5162-0.20104 2.8196 1.9002 2.9498 5.2639 0.29996 7.7535-0.49074 0.46107-0.89225 0.91691-0.89225 1.013 0 0.0961 0.45804 0.34031 1.0179 0.54275 2.0766 0.75089 3.8343 2.8567 3.8343 4.5937 0 3.2646-3.3938 5.496-8.4199 5.536-2.8052 0.0223-4.4384-0.49928-6.2312-1.9902-1.1275-0.9376-2.4741-2.8846-2.4741-3.5771 0-0.75843 1.262-1.494 2.1715-1.2658 0.65076 0.16333 0.72665 0.29741 0.58088 1.0263-0.19345 0.96726 0.59513 1.8823 2.5279 2.9333 1.6326 0.88774 5.6956 0.89109 7.6147 6e-3 1.5999-0.73764 2.4611-2.0772 1.9942-3.102-0.45328-0.99485-2.0169-2.0303-3.8768-2.5674-1.4728-0.42526-1.8872-0.44008-3.2389-0.11582-1.7107 0.41039-2.4316 0.19067-2.5782-0.78582-0.11472-0.76362 0.46078-1.1844 2.0178-1.4752 2.3024-0.43014 5.16-2.484 5.535-3.9784 0.4974-1.9818-1.2779-3.3136-4.1395-3.1054-3.39 0.24666-8.634 3.5307-11.299 7.0759-2.7277 3.6286-3.985 7.182-4.9209 13.907-0.43465 3.1232-0.60372 3.7563-1.0031 3.7563-0.26421 0-0.55846-0.246-0.65389-0.54667zm70.17-0.639c-0.96405-1.0642-1.2644-1.8349-1.8503-4.7473-0.30257-1.5041-0.5945-2.7791-0.64872-2.8334-0.20562-0.20562-4.8195 4.9105-5.2583 5.8308-0.36794 0.77158-0.60423 0.94726-1.1831 0.87956-0.41948-0.0491-0.76324-0.29531-0.81842-0.58626-0.0964-0.50826 3.2426-7.1207 6.2322-12.342 0.89881-1.5698 2.0525-3.689 2.5637-4.7094 0.88096-1.7583 1.2826-2.269 1.7924-2.279 0.75701-0.0148 0.26541 1.4199-2.0634 6.0218-1.4385 2.8427-2.565 5.219-2.5032 5.2808 0.0618 0.0618 0.51373-0.088 1.0044-0.33274 1.5183-0.75744 1.8614-0.31785 2.5925 3.3217 0.79036 3.9344 1.3425 5.398 2.0364 5.398 0.66912 0 3.0551-1.8933 4.08-3.2375 0.44168-0.57929 1.0578-1.6291 1.3691-2.3329 0.45149-1.0207 0.70955-1.2796 1.2752-1.2796 0.97054 0 1.136 0.64211 0.55645 2.1596-0.65661 1.7193-2.3328 3.7872-4.1527 5.1232-1.1593 0.85099-1.8203 1.1228-2.9555 1.2154-1.2565 0.10243-1.5476 0.025-2.0688-0.55036zm-37.66-1.517c-0.38767-0.59167-0.44743-1.1034-0.29854-2.5567 0.37812-3.6906 4.0405-15.396 5.2531-16.789 0.74624-0.85757 1.9359-0.38434 1.2156 0.48355-0.51479 0.62028-2.2498 5.9579-3.3452 10.291-0.74255 2.9374-1.0215 4.6763-1.0531 6.5646-0.0403 2.4064-0.0823 2.5744-0.6651 2.6576-0.41607 0.0594-0.78268-0.15618-1.1068-0.65089zm21.75-16.6c-0.14411-1.8749-0.10184-2.5467 0.17087-2.7154 0.70124-0.43355 1.074 0.46423 1.1467 2.7618 0.067 2.1189 0.0311 2.2796-0.52705 2.3593-0.55719 0.0796-0.61236-0.0883-0.7905-2.4058zm4.2394 1.5998c-0.0994-0.16076-0.3233-1.5114-0.49766-3.0013-0.32685-2.7931-0.1632-3.5326 0.70781-3.1983 0.41739 0.16017 1.2501 5.6979 0.93379 6.2097-0.22767 0.36837-0.91378 0.36232-1.1439-0.0101z"/>
 </g>
</svg>
